<?xml version="1.0" encoding="utf-8"?>
<!-- Generator: Adobe Illustrator 17.0.2, SVG Export Plug-In . SVG Version: 6.00 Build 0)  -->
<!DOCTYPE svg PUBLIC "-//W3C//DTD SVG 1.1 Tiny//EN" "http://www.w3.org/Graphics/SVG/1.1/DTD/svg11-tiny.dtd">
<svg version="1.1" baseProfile="tiny" id="Layer_1" xmlns="http://www.w3.org/2000/svg" xmlns:xlink="http://www.w3.org/1999/xlink"
	 x="0px" y="0px" width="399.78px" height="283.342px" viewBox="-2 -2 399.78 283.342" xml:space="preserve">
<g>
	<circle fill="none" stroke="#333333" stroke-width="6" stroke-linejoin="round" cx="273.197" cy="267.498" r="10.844"/>
	<circle fill="none" stroke="#333333" stroke-width="6" stroke-linejoin="round" cx="247.31" cy="246.005" r="12.673"/>
	<g>
		
			<path fill="#333333" stroke="#333333" stroke-width="4" stroke-linecap="round" stroke-linejoin="round" stroke-miterlimit="10" d="
			M61.922,186.859c7.234,22.621,30.736,34.266,52.383,39.186c24.481,5.565,52.374,3.95,74.797-7.961
			c-1.14-0.299-2.28-0.598-3.42-0.897c8.85,11.489,21.379,17.529,35.909,15.284c9.758-1.508,21.746-8.124,24.257-18.435
			c-1.224,0.498-2.448,0.996-3.672,1.494c34.702,25.308,96.804,11.01,105.209-34.814c-1.025,0.582-2.05,1.164-3.075,1.746
			c17.722,6.269,35.516-3.5,45.067-18.573c10.857-17.134,7.645-38.495-7.651-51.661c0,1.179,0,2.357,0,3.536
			c14.613-14.764,13.509-37.655,2.476-54.168c-14.397-21.545-41.228-26.124-64.675-18.546c1.025,0.582,2.05,1.164,3.075,1.746
			c-7.23-23.707-31.108-36.118-53.927-40.686c-23.34-4.672-51.785-2.742-71.314,12.178c0.841,0,1.682,0,2.524,0
			C177.088,2.117,149.594-3.276,123.211,1.967C101.109,6.36,80.005,19.874,72.25,41.795c1.025-0.582,2.05-1.164,3.075-1.746
			c-21.763-8.458-46.067-0.97-60.265,17.346C1.17,75.315,2.142,98.97,17.972,115.264c0-1.179,0-2.357,0-3.536
			c-18.409,14.831-23.756,39.04-10.97,59.391c12.584,20.031,37.329,26.39,58.592,17.234c2.954-1.272,0.405-5.578-2.524-4.317
			c-19.044,8.201-40.322,1.863-51.751-15.44c-12.093-18.308-6.237-40.099,10.188-53.332c1.073-0.865,0.872-2.638,0-3.536
			C6.825,96.615,6.918,75.282,20.006,59.153c13.05-16.082,34.788-21.745,53.99-14.283c1.336,0.519,2.658-0.566,3.075-1.746
			c7.241-20.468,27.178-32.007,47.469-36.336c24.86-5.304,51.425,0.516,72.819,13.818c0.683,0.425,1.851,0.514,2.524,0
			c18.034-13.777,43.52-15.711,65.21-12.087c21.715,3.628,45.788,14.988,52.686,37.607c0.384,1.258,1.752,2.174,3.075,1.746
			c21.189-6.848,44.769-3.424,58.489,15.474c10.499,14.461,12.008,35.584-1.155,48.883c-0.904,0.914-1.037,2.643,0,3.536
			c13.592,11.699,16.211,29.166,7.433,44.66c-7.908,13.959-24.263,22.778-39.985,17.217c-1.205-0.426-2.842,0.472-3.075,1.746
			c-7.855,42.822-65.661,55.311-97.864,31.826c-1.3-0.948-3.317,0.034-3.673,1.494c-1.976,8.118-11.301,12.694-18.692,14.526
			c-12.566,3.115-24.664-2.61-32.335-12.569c-0.858-1.114-2.098-1.599-3.42-0.897c-21.011,11.161-46.785,12.426-69.754,7.714
			c-20.165-4.136-43.326-14.828-50.081-35.951C65.765,182.472,60.937,183.78,61.922,186.859z"/>
	</g>
</g>
</svg>
